<svg width="24" height="24" viewBox="0 0 24 24" fill="none" xmlns="http://www.w3.org/2000/svg">
<path fill-rule="evenodd" clip-rule="evenodd" d="M14.4881 7.56205C14.8299 7.2712 15 6.91747 15 6.50329C15 6.09003 14.8301 5.73561 14.4881 5.44106C14.1471 5.14733 13.7361 5 13.2556 5C12.7736 5 12.361 5.14698 12.0167 5.44106C11.6725 5.73561 11.5 6.08991 11.5 6.50329C11.5 6.91747 11.6725 7.27108 12.0167 7.56205C12.3616 7.85394 12.7734 8 13.2556 8C13.7362 8 14.1471 7.85394 14.4881 7.56205ZM14.8044 17.809L15 17.0321C14.8988 17.0783 14.7355 17.1311 14.5117 17.1912C14.2872 17.2513 14.0853 17.2819 13.9077 17.2819C13.5296 17.2819 13.2633 17.2217 13.1088 17.1006C12.9553 16.9796 12.8788 16.7518 12.8788 16.4183C12.8788 16.2861 12.9019 16.0891 12.9502 15.8313C12.997 15.5718 13.0508 15.3411 13.1107 15.1394L13.8409 12.6274C13.9124 12.3969 13.9614 12.1435 13.9878 11.8668C14.0147 11.5908 14.0273 11.3977 14.0273 11.2882C14.0273 10.7585 13.8362 10.3286 13.4539 9.99702C13.0716 9.66567 12.5273 9.5 11.8218 9.5C11.4292 9.5 11.0142 9.56778 10.5749 9.70322C10.1357 9.8383 9.67649 10.001 9.1961 10.1911L9 10.9686C9.14315 10.9172 9.31366 10.8618 9.51314 10.8045C9.71175 10.7475 9.90659 10.718 10.0962 10.718C10.4832 10.718 10.7439 10.7821 10.8806 10.9084C11.0172 11.0351 11.0858 11.2604 11.0858 11.5824C11.0858 11.7605 11.0641 11.9584 11.0191 12.1734C10.9747 12.3898 10.9192 12.6187 10.854 12.8602L10.1206 15.3822C10.0554 15.6472 10.0077 15.8843 9.97773 16.0949C9.948 16.3052 9.93369 16.5116 9.93369 16.7122C9.93369 17.2306 10.1308 17.6579 10.5249 17.9951C10.919 18.3309 11.4715 18.5 12.1819 18.5C12.6444 18.5 13.0504 18.4412 13.3998 18.3231C13.7489 18.2053 14.2176 18.0341 14.8044 17.809Z" fill="#AAAFBD"/>
</svg>
