<svg width="24" height="24" viewBox="0 0 24 24" fill="none" xmlns="http://www.w3.org/2000/svg">
<path d="M8.44434 12.0889H12.9777C13.7777 12.0889 14.4177 11.8755 14.8443 11.5022C15.271 11.1289 15.4843 10.5422 15.4843 9.84887C15.4843 9.15554 15.271 8.62222 14.8443 8.19555C14.4177 7.76888 13.831 7.55554 13.0843 7.55554H10.2577V16.7644" stroke="#AAAFBD" stroke-width="2" stroke-linecap="round" stroke-linejoin="round"/>
<path d="M8.44434 14.8445H12.871" stroke="#AAAFBD" stroke-width="2" stroke-linecap="round" stroke-linejoin="round"/>
<path d="M12 20C16.4183 20 20 16.4183 20 12C20 7.58172 16.4183 4 12 4C7.58172 4 4 7.58172 4 12C4 16.4183 7.58172 20 12 20Z" stroke="#AAAFBD" stroke-width="2" stroke-linecap="round" stroke-linejoin="round"/>
</svg>
